<?xml version="1.0" standalone="no"?>
<!DOCTYPE svg PUBLIC "-//W3C//DTD SVG 20010904//EN"
 "http://www.w3.org/TR/2001/REC-SVG-20010904/DTD/svg10.dtd">
<svg version="1.0" xmlns="http://www.w3.org/2000/svg"
 width="250.000000pt" height="250.000000pt" viewBox="0 0 250.000000 250.000000"
 preserveAspectRatio="xMidYMid meet">

<g transform="translate(0.000000,250.000000) scale(0.100000,-0.100000)"
fill="#000000" stroke="none">
<path d="M250 1298 c0 -276 2 -499 4 -497 2 2 96 202 209 444 l204 440 196 3
196 2 5 -32 c13 -75 88 -798 90 -860 l2 -68 -187 0 -187 0 -5 43 c-4 23 -9 77
-13 120 l-6 78 -126 -3 -125 -3 -51 -117 -51 -118 -77 0 c-76 0 -78 0 -78 -25
l0 -25 565 0 565 0 0 49 c0 28 14 116 31 198 34 161 52 196 99 191 36 -4 37
-41 1 -210 -17 -79 -31 -149 -31 -156 0 -9 28 -12 99 -12 86 0 100 2 105 18 3
9 19 85 36 167 34 159 51 195 96 195 42 0 43 -23 7 -198 -18 -91 -33 -169 -33
-174 0 -5 48 -7 107 -6 l107 3 38 175 c41 188 42 229 7 267 -28 29 -90 47
-132 37 -38 -8 -123 -49 -132 -64 -9 -15 -35 -12 -35 3 0 8 -12 24 -26 38 -21
20 -35 24 -82 23 -58 -1 -139 -31 -163 -60 -19 -23 -36 -16 -42 16 -5 24 -12
30 -32 30 l-25 0 0 295 0 295 -565 0 -565 0 0 -502z"/>
<path d="M2181 1130 c-40 -193 -75 -359 -78 -370 -5 -19 0 -20 108 -20 l114 0
74 353 c41 193 76 360 79 370 4 15 -6 17 -109 17 l-114 0 -74 -350z"/>
<path d="M638 1254 l-76 -169 86 -3 c47 -2 88 1 92 5 6 7 -15 302 -23 327 -2
5 -37 -67 -79 -160z"/>
</g>
</svg>
